<svg width="69" height="56" viewBox="0 0 69 56" fill="none" xmlns="http://www.w3.org/2000/svg">
<g clip-path="url(#clip0_1_22)">
<path d="M39.1496 16.87L37.8396 15.87C37.6348 15.7043 37.3729 15.626 37.1108 15.6522C36.8486 15.6784 36.6074 15.807 36.4396 16.01L18.3096 36.83L18.5896 37.14L23.0796 33C22.9299 32.9398 22.8061 32.8291 22.7297 32.6871C22.6532 32.5451 22.6289 32.3807 22.661 32.2227C22.6931 32.0646 22.7795 31.9227 22.9053 31.8218C23.0311 31.7208 23.1883 31.6671 23.3496 31.67C23.495 31.67 23.6366 31.7166 23.7536 31.803C23.8706 31.8894 23.9568 32.011 23.9996 32.15L29.9196 26.66C30.0102 26.587 30.1231 26.5472 30.2396 26.5472C30.356 26.5472 30.4689 26.587 30.5596 26.66L30.8596 26.88C30.9611 26.9528 31.0861 26.9849 31.2101 26.9701C31.3341 26.9553 31.4481 26.8946 31.5296 26.8L39.2696 18.12C39.3518 18.0339 39.4146 17.931 39.4536 17.8184C39.4925 17.7058 39.5068 17.5862 39.4954 17.4676C39.484 17.349 39.4473 17.2343 39.3876 17.1312C39.3279 17.028 39.2467 16.939 39.1496 16.87V16.87Z" fill="#303030"/>
<path d="M47.6703 22.73C43.7028 25.553 39.2581 27.6364 34.5503 28.88C29.8777 30.0683 25.0965 30.7786 20.2803 31C20.3773 31.7102 20.5516 32.4077 20.8003 33.08C23.5203 35.54 44.0003 31.34 48.0003 26.48C48.8503 25.47 47.6703 22.73 47.6703 22.73ZM23.3503 33C23.2158 33 23.0843 32.9601 22.9725 32.8854C22.8607 32.8107 22.7735 32.7045 22.722 32.5802C22.6706 32.456 22.6571 32.3192 22.6833 32.1873C22.7096 32.0554 22.7743 31.9342 22.8694 31.8391C22.9645 31.744 23.0857 31.6793 23.2176 31.653C23.3495 31.6268 23.4862 31.6403 23.6105 31.6917C23.7348 31.7432 23.841 31.8304 23.9157 31.9422C23.9904 32.054 24.0303 32.1855 24.0303 32.32C24.0316 32.4097 24.015 32.4987 23.9813 32.5818C23.9476 32.6649 23.8975 32.7404 23.8341 32.8038C23.7707 32.8672 23.6952 32.9173 23.6121 32.951C23.529 32.9847 23.4399 33.0013 23.3503 33V33Z" fill="#303030"/>
<path d="M4.0003 21.2899L4.1603 20.5999L6.7603 21.1899C6.9748 21.5861 7.10743 22.0214 7.1503 22.4699C7.19993 22.945 7.16951 23.425 7.0603 23.8899C6.93085 24.5352 6.6343 25.1352 6.2003 25.6299C5.78739 26.097 5.25497 26.4428 4.6603 26.6299C4.04739 26.8189 3.39551 26.8431 2.7703 26.6999C2.14372 26.5646 1.56617 26.2603 1.1003 25.8199C0.641569 25.3969 0.312165 24.8526 0.150299 24.2499C-0.0292664 23.5954 -0.0292664 22.9045 0.150299 22.2499C0.257777 21.76 0.450726 21.2929 0.720299 20.8699C0.975438 20.4853 1.31814 20.1665 1.7203 19.9399L2.0803 20.4899C1.7356 20.7016 1.43972 20.9839 1.21218 21.3183C0.984643 21.6527 0.830626 22.0316 0.760299 22.4299C0.636286 22.9473 0.646613 23.4877 0.790299 23.9999C0.924669 24.4863 1.1912 24.9259 1.5603 25.2699C1.93968 25.6367 2.41433 25.8896 2.9303 25.9999C3.43063 26.1404 3.95997 26.1404 4.4603 25.9999C4.93959 25.8417 5.37007 25.5628 5.7103 25.1899C6.05994 24.7873 6.3009 24.3019 6.4103 23.7799C6.57483 23.1468 6.53279 22.4776 6.2903 21.8699L4.0003 21.2899Z" fill="#303030"/>
<path d="M9.65998 14.9999L7.32998 18.1099L8.32998 19.8999L7.86998 20.5199L4.16998 13.7699L4.59998 13.1799L12.13 14.7999L11.66 15.4199L9.65998 14.9999ZM8.99998 14.8399L4.99998 13.9399L6.99998 17.5299L8.99998 14.8399Z" fill="#303030"/>
<path d="M9 8.5501L9.6 8.1001L13.41 13.2001L16.55 10.8501L16.93 11.3601L13.2 14.1501L9 8.5501Z" fill="#303030"/>
<path d="M15.3 4.38008L15.97 4.08008L18.61 9.86008L22.18 8.24008L22.44 8.82008L18.2 10.7501L15.3 4.38008Z" fill="#303030"/>
<path d="M28.48 6.68003L28.63 7.31003L23.81 8.44003L22.21 1.62003L26.89 0.530029L27.03 1.15003L23.03 2.08003L23.6 4.50003L27.12 3.67003L27.27 4.29003L23.74 5.11003L24.34 7.64003L28.48 6.68003Z" fill="#303030"/>
<path d="M35.35 6.92997L33.68 4.72997C33.4935 4.74029 33.3065 4.74029 33.12 4.72997L31.24 4.78997L31.31 7.00997H30.57L30.34 0.00996866L33 -3.1339e-05C33.7521 -0.0694894 34.5042 0.132721 35.12 0.569969C35.3796 0.778962 35.5882 1.04418 35.7303 1.3456C35.8723 1.64702 35.944 1.97678 35.94 2.30997C35.9692 2.80416 35.8396 3.29473 35.57 3.70997C35.2827 4.10853 34.8766 4.40603 34.41 4.55997L36.16 6.89997L35.35 6.92997ZM34.65 3.63997C34.8298 3.47531 34.9692 3.27154 35.0577 3.04439C35.1461 2.81725 35.1811 2.57281 35.16 2.32997C35.1652 2.08584 35.1148 1.84374 35.0125 1.62198C34.9103 1.40022 34.759 1.20461 34.57 1.04997C34.1091 0.737448 33.5549 0.592707 33 0.639969L31.1 0.709969L31.22 4.20997L33.08 4.14997C33.6472 4.17096 34.2035 3.99026 34.65 3.63997V3.63997Z" fill="#303030"/>
<path d="M40.6396 5.07L40.2796 7.46L39.5496 7.35L39.9196 5L37.8496 0L38.6296 0.12L40.3996 4.38L43.3996 0.85L44.0996 1L40.6396 5.07Z" fill="#303030"/>
<path d="M50.53 4.64993L51.4 5.77993L51.02 6.07993L50.15 4.91993L49.6 6.22993L49.18 6.04993L49.74 4.73993L48.3 4.92993V4.44993L49.72 4.28993L48.84 3.15993L49.23 2.85993L50 3.99993L50.54 2.67993L50.97 2.85993L50.46 4.19993L51.9 3.99993V4.48993L50.53 4.64993Z" fill="#303030"/>
<path d="M53.8704 12.7099C53.6343 12.3458 53.487 11.9314 53.4404 11.4999L54.0304 11.2399C54.0747 11.6363 54.2043 12.0184 54.4104 12.3599C54.6338 12.7428 54.9253 13.0817 55.2704 13.3599C55.6269 13.7012 56.0817 13.9216 56.5704 13.9899C56.747 14.0063 56.9249 13.9793 57.0887 13.9114C57.2525 13.8434 57.3973 13.7365 57.5104 13.5999C57.5934 13.5084 57.6566 13.4008 57.6962 13.2838C57.7357 13.1669 57.7508 13.043 57.7404 12.9199C57.7074 12.6762 57.6257 12.4416 57.5004 12.2299C57.3125 11.923 57.1089 11.6259 56.8904 11.3399C56.6242 10.9911 56.3836 10.6235 56.1704 10.2399C56.0075 9.95284 55.9182 9.6299 55.9104 9.29992C55.9097 8.92934 56.049 8.57218 56.3004 8.29992C56.5184 8.03604 56.8059 7.83857 57.1304 7.72992C57.493 7.62518 57.8778 7.62518 58.2404 7.72992C58.7076 7.88269 59.1394 8.12751 59.5104 8.44992C59.8183 8.70599 60.0907 9.00192 60.3204 9.32992C60.5329 9.63408 60.6918 9.97227 60.7904 10.3299L60.2204 10.6299C60.121 10.2966 59.9727 9.97979 59.7804 9.68992C59.5889 9.43106 59.3635 9.199 59.1104 8.99992C58.7593 8.66016 58.3058 8.44575 57.8204 8.38992C57.642 8.375 57.4627 8.40466 57.2987 8.47623C57.1346 8.5478 56.9909 8.65903 56.8804 8.79992C56.7954 8.89 56.7308 8.99741 56.6911 9.11477C56.6514 9.23214 56.6375 9.35669 56.6504 9.47992C56.6738 9.73209 56.756 9.97526 56.8904 10.1899C57.0304 10.4199 57.2304 10.7199 57.5004 11.0799C57.7681 11.4207 58.0088 11.7818 58.2204 12.1599C58.3868 12.4461 58.4796 12.7691 58.4904 13.0999C58.4911 13.4705 58.3518 13.8277 58.1004 14.0999C57.8817 14.3674 57.5898 14.5655 57.2604 14.6699C56.8985 14.7792 56.5124 14.7792 56.1504 14.6699C55.6801 14.5176 55.2449 14.2728 54.8704 13.9499C54.4668 13.5986 54.1283 13.1788 53.8704 12.7099V12.7099Z" fill="#303030"/>
<path d="M63.9297 14.17L62.5197 12.17L63.0397 11.8L66.2897 16.44L65.7697 16.81L64.3597 14.81L59.1397 18.46L58.7197 17.85L63.9297 14.17Z" fill="#303030"/>
<path d="M61.69 22.39C61.8685 21.7856 62.2153 21.2445 62.69 20.83C63.1543 20.4141 63.7199 20.1279 64.33 20C64.9519 19.8572 65.6004 19.8814 66.21 20.07C66.7983 20.2645 67.3257 20.6092 67.74 21.07C68.1708 21.5656 68.4639 22.1656 68.59 22.81C68.7556 23.4426 68.7556 24.1073 68.59 24.74C68.4065 25.3421 68.0605 25.8819 67.59 26.3C67.1128 26.727 66.5333 27.0233 65.9077 27.16C65.2821 27.2967 64.6318 27.2691 64.02 27.08C63.4271 26.8949 62.8974 26.5487 62.49 26.08C62.0611 25.587 61.7682 24.9907 61.64 24.35C61.4872 23.7033 61.5044 23.028 61.69 22.39V22.39ZM63 25.57C63.3339 25.9502 63.7665 26.2306 64.25 26.38C64.7483 26.5245 65.2749 26.5417 65.7816 26.4298C66.2883 26.318 66.7588 26.0808 67.15 25.74C67.5191 25.4004 67.7916 24.9691 67.94 24.49C68.0794 23.9841 68.0931 23.4517 67.9798 22.9393C67.8665 22.4269 67.6297 21.95 67.29 21.55C66.9414 21.1679 66.4955 20.8879 66 20.74C65.4954 20.606 64.9646 20.606 64.46 20.74C63.9508 20.8377 63.4795 21.0768 63.1 21.43C62.7275 21.7708 62.4545 22.2062 62.31 22.69C62.1742 23.1977 62.1742 23.7322 62.31 24.24C62.4195 24.7361 62.6574 25.1947 63 25.57V25.57Z" fill="#303030"/>
<path d="M60.93 33.9999L63.52 32.9999C63.52 32.8199 63.58 32.6399 63.63 32.4499L64.12 30.6399L62 30.0899L62.19 29.3799L68.95 31.1899L68.27 33.7199C68.1168 34.4581 67.7055 35.1176 67.11 35.5799C66.8363 35.7699 66.5224 35.8941 66.1928 35.9427C65.8632 35.9912 65.5268 35.9629 65.21 35.8599C64.7274 35.7552 64.295 35.4891 63.9841 35.1055C63.6732 34.7219 63.5024 34.2437 63.5 33.7499L60.74 34.7499L60.93 33.9999ZM64.28 34.2799C64.3971 34.4924 64.556 34.679 64.7472 34.8286C64.9383 34.9781 65.1577 35.0875 65.3921 35.1501C65.6266 35.2126 65.8713 35.2272 66.1115 35.1928C66.3517 35.1584 66.5825 35.0758 66.79 34.9499C67.2314 34.5954 67.5326 34.0957 67.64 33.5399L68.12 31.7399L64.73 30.8299L64.25 32.6299C64.0655 33.1663 64.0761 33.7506 64.28 34.2799V34.2799Z" fill="#303030"/>
<path d="M57.34 40.4401L56.83 40.0501L59.83 36.1001L65.41 40.3301L62.51 44.1601L62 43.7701L64.45 40.5401L62.45 39.0301L60.26 41.9201L59.76 41.5401L62 38.6501L59.93 37.0801L57.34 40.4401Z" fill="#303030"/>
<path d="M55.0003 48.4099L53.5703 48.4899V48.0099L55.0003 47.9999L54.2303 46.8099L54.6203 46.5599L55.3803 47.7599L56.0003 46.4199L56.4303 46.6499L55.7503 47.9099L57.1803 47.8299V48.3199H55.7303L56.5003 49.5099L56.1103 49.7599L55.3503 48.5599L54.6903 49.8599L54.2703 49.6199L55.0003 48.4099Z" fill="#303030"/>
<path d="M42 47.6099L43.21 48.2799C43.4128 47.8902 43.696 47.5479 44.0407 47.2756C44.3854 47.0033 44.7839 46.8071 45.21 46.6999C45.6074 46.576 46.0254 46.5318 46.44 46.5699C46.7997 46.5975 47.1452 46.7219 47.44 46.9299C47.7064 47.1308 47.9025 47.4108 48 47.7299C48.1205 48.1247 48.0993 48.5491 47.94 48.9299C47.6891 49.4473 47.3508 49.9175 46.94 50.3199C47.2697 50.4971 47.5755 50.7155 47.85 50.9699C48.0386 51.1648 48.179 51.4011 48.26 51.6599C48.3112 51.8617 48.3144 52.0726 48.2693 52.2759C48.2241 52.4791 48.1319 52.6688 48 52.8299C47.733 53.2146 47.3347 53.4884 46.88 53.5999C46.4807 53.7522 46.0393 53.7522 45.64 53.5999C45.4624 53.5235 45.305 53.407 45.1801 53.2596C45.0551 53.1121 44.9661 52.9376 44.92 52.7499C44.8151 52.4198 44.8402 52.0622 44.99 51.7499C45.2195 51.2953 45.52 50.8801 45.88 50.5199L43.47 49.1799C43.378 49.6508 43.3578 50.1329 43.41 50.6099H42.8C42.7589 50.0225 42.8267 49.4326 43 48.8699L41.74 48.1699L42 47.6099ZM43.74 48.6099L46.39 50.0799C46.7373 49.7483 47.0248 49.3592 47.24 48.9299C47.3499 48.64 47.3499 48.3199 47.24 48.0299C47.1946 47.8567 47.1069 47.6974 46.9847 47.5665C46.8625 47.4356 46.7097 47.3371 46.54 47.2799C46.1248 47.1397 45.6751 47.1397 45.26 47.2799C44.9207 47.3694 44.6053 47.5322 44.3357 47.7568C44.0662 47.9814 43.8492 48.2624 43.7 48.5799L43.74 48.6099ZM47.5 52.6099C47.5653 52.4994 47.6063 52.3762 47.6201 52.2486C47.6339 52.1209 47.6202 51.9918 47.58 51.8699C47.5187 51.6724 47.4087 51.4936 47.26 51.3499C47.0054 51.1352 46.7269 50.9506 46.43 50.7999C46.1268 51.0997 45.8615 51.4356 45.64 51.7999C45.5191 52.0271 45.4904 52.2921 45.56 52.5399C45.5917 52.6543 45.6473 52.7607 45.7232 52.8521C45.799 52.9434 45.8934 53.0177 46 53.0699C46.2546 53.1659 46.5354 53.1659 46.79 53.0699C47.0619 52.9974 47.2992 52.8309 47.46 52.5999L47.5 52.6099Z" fill="#303030"/>
<path d="M29.8096 55.3198L29.9496 48.3198H30.6596L30.5496 53.9198L33.3896 49.2598H33.7396L36.3996 53.9998L36.4996 48.4298H37.2096L37.0796 55.4298H36.4696L33.5296 50.1998L30.4196 55.3298L29.8096 55.3198Z" fill="#303030"/>
<path d="M26.33 48.0001C26.7873 48.4359 27.1145 48.9902 27.2752 49.6012C27.4359 50.2121 27.4237 50.8557 27.24 51.4601C27.0757 52.079 26.7475 52.6421 26.29 53.0901C25.8454 53.5271 25.2879 53.8318 24.68 53.9701C24.0387 54.1148 23.3711 54.0941 22.74 53.9101C22.111 53.7565 21.5323 53.443 21.06 53.0001C20.6095 52.5698 20.2875 52.0228 20.13 51.4201C19.9762 50.7971 19.9876 50.1447 20.1629 49.5274C20.3383 48.9101 20.6716 48.3492 21.13 47.9001C21.5667 47.4642 22.1123 47.1534 22.71 47.0001C23.348 46.8558 24.0122 46.8765 24.64 47.0601C25.2755 47.2212 25.858 47.5452 26.33 48.0001V48.0001ZM22.92 47.6501C22.4308 47.764 21.9837 48.0135 21.63 48.3701C21.2616 48.737 20.9991 49.1965 20.87 49.7001C20.7305 50.2006 20.7305 50.7296 20.87 51.2301C20.9879 51.717 21.241 52.1607 21.6 52.5101C21.9765 52.8783 22.4414 53.1435 22.95 53.2801C23.4585 53.4096 23.9914 53.4096 24.5 53.2801C24.9895 53.1597 25.4382 52.9112 25.8 52.5601C26.1664 52.1917 26.4286 51.7328 26.56 51.2301C26.6998 50.7263 26.6998 50.1939 26.56 49.6901C26.432 49.205 26.1765 48.7631 25.82 48.4101C25.4415 48.0414 24.9723 47.7792 24.46 47.6501C23.9561 47.5108 23.4239 47.5108 22.92 47.6501V47.6501Z" fill="#303030"/>
<path d="M15.3495 43L15.6195 45.75C15.7911 45.8233 15.958 45.9068 16.1195 46L17.7495 46.94L18.8495 45L19.4995 45.37L15.9995 51.4L13.7195 50.09C13.0456 49.7515 12.514 49.1844 12.2195 48.49C12.1108 48.1772 12.0742 47.8439 12.1123 47.5149C12.1504 47.1859 12.2622 46.8698 12.4395 46.59C12.672 46.1518 13.0405 45.8008 13.4895 45.59C13.9456 45.4011 14.4501 45.3626 14.9295 45.48L14.6395 42.54L15.3495 43ZM14.2095 46.16C13.9747 46.219 13.7541 46.3247 13.561 46.4708C13.368 46.617 13.2064 46.8006 13.086 47.0107C12.9655 47.2207 12.8887 47.4529 12.8601 47.6934C12.8315 47.9338 12.8517 48.1776 12.9195 48.41C13.154 48.9276 13.5603 49.3481 14.0695 49.6L15.6795 50.53L17.4295 47.53L15.8195 46.6C15.3568 46.2533 14.787 46.0799 14.2095 46.11V46.16Z" fill="#303030"/>
<path d="M9.43 38.3101L9.88 37.8601L13.33 41.4101L8.33 46.2901L5 42.8501L5.46 42.4001L8.29 45.3101L10 43.5801L7.52 41.0001L8 40.5401L10.53 43.1401L12.39 41.3301L9.43 38.3101Z" fill="#303030"/>
<path d="M2.00035 34.38L2.24035 33L2.71035 33.07L2.44035 34.49L3.77035 34L3.93035 34.44L2.58035 34.9L3.69035 35.84L3.37035 36.2L2.30035 35.2L2.05035 36.62L1.57035 36.53L1.85035 35.11L0.510352 35.59L0.360352 35.2L1.70035 34.73L0.590352 33.8L0.920352 33.44L2.00035 34.38Z" fill="#303030"/>
</g>
<defs>
<clipPath id="clip0_1_22">
<rect width="68.93" height="55.46" fill="white"/>
</clipPath>
</defs>
</svg>
